#!OML:ASF H:\Terrain\Walking\May29\JustinRory\Justin.ASF
:FULLY-SPECIFIED
:DEGREES
565
root 2.29438 17.3361 13.0338 -175.842 -104.257 -190.835
lowerback 8.39733 4.82943 4.39942
upperback -1.37608 6.99308 1.75145
thorax -5.83333 3.31698 -1.52978
lowerneck -16.8832 -3.63263 -17.943
upperneck -1.01553 -2.22133 16.6432
head 2.87525 -0.476593 8.06742
rclavicle -2.45748e-014 -2.38542e-015
rhumerus 0.0034743 -39.6389 -21.3185
rradius 37.2601
rwrist -47.6471
rhand -21.2115 24.1858
rfingers 7.12502
rthumb 5.17017 -5.73108
lclavicle -2.45748e-014 -2.38542e-015
lhumerus 2.42593 70.8286 4.5324
lradius 44.073
lwrist 36.7126
lhand 3.9283 38.7096
lfingers 7.12502
lthumb 29.3472 66.4131
rfemur -12.6542 2.04071 13.4835
rtibia 30.3386
rfoot -8.05987 -4.78171
rtoes -5.14443
lfemur -2.02465 -22.4411 -5.88849
ltibia 32.5192
lfoot -12.6514 -32.2448
ltoes 12.6007
566
root 2.3717 17.3294 13.1309 -177.229 -103.64 -189.113
lowerback 8.38991 4.7378 4.07987
upperback -1.44591 6.83605 1.63776
thorax -5.93295 3.24609 -1.45825
lowerneck -16.4365 -4.1489 -18.1135
upperneck -1.18572 -3.00469 17.66
head 2.93529 -0.847555 8.37753
rclavicle -9.98893e-015 1.47101e-014
rhumerus -0.179761 -38.3081 -22.7467
rradius 37.5152
rwrist -47.4906
rhand -21.5463 25.5157
rfingers 7.12502
rthumb 4.84691 -4.40889
lclavicle -9.98893e-015 1.47101e-014
lhumerus 3.42868 71.7797 4.83061
lradius 44.2316
lwrist 36.3143
lhand 3.86157 38.7882
lfingers 7.12502
lthumb 29.2835 66.5029
rfemur -13.2976 1.9432 12.5312
rtibia 30.2423
rfoot -7.51013 -4.16156
rtoes -5.29198
lfemur -1.87684 -22.1579 -6.71459
ltibia 31.9413
lfoot -13.131 -32.7114
ltoes 14.6724
567
root 2.45348 17.3273 13.2314 -178.279 -102.965 -187.793
lowerback 8.45474 4.72241 3.88797
upperback -1.46589 6.80258 1.68379
thorax -6.02002 3.23421 -1.30979
lowerneck -15.9598 -4.8665 -18.6037
upperneck -1.43593 -3.98866 18.5144
head 3.01353 -1.32732 8.66853
rclavicle -3.08116e-015 -3.57812e-015
rhumerus -1.03064 -35.8404 -23.3734
rradius 38.3908
rwrist -48.6118
rhand -22.2458 26.6917
rfingers 7.12502
rthumb 4.17145 -3.24721
lclavicle -3.08116e-015 -3.57812e-015
lhumerus 3.90774 72.3576 4.82607
lradius 43.9126
lwrist 36.0506
lhand 4.51234 38.3648
lfingers 7.12502
lthumb 29.9047 65.9693
rfemur -13.9806 1.92693 11.7371
rtibia 30.2856
rfoot -6.87137 -3.54391
rtoes -6.6705
lfemur -1.69876 -21.3057 -7.49082
ltibia 31.2393
lfoot -13.638 -32.2156
ltoes 15.2729
568
root 2.53157 17.3226 13.3103 -182.232 -101.963 -183.465
lowerback 8.46142 4.82825 2.8069
upperback -1.46675 6.82491 1.51646
thorax -6.12665 3.28035 -0.898655
lowerneck -15.5091 -5.51506 -18.598
upperneck -1.73599 -4.95507 19.0834
head 3.06693 -1.81162 8.77185
rclavicle 2.50966e-014 2.06736e-014
rhumerus -1.40885 -33.9187 -24.6462
rradius 38.9098
rwrist -49.4242
rhand -22.9154 28.0687
rfingers 7.12502
rthumb 3.52476 -1.88195
lclavicle 2.50966e-014 2.06736e-014
lhumerus 2.47585 72.2657 3.22824
lradius 44.7045
lwrist 36.4408
lhand 4.98186 38.0528
lfingers 7.12502
lthumb 30.3527 65.5756
rfemur -14.813 2.16709 10.3713
rtibia 30.3195
rfoot -6.12716 -3.03326
rtoes -8.07381
lfemur -1.45845 -19.6196 -8.8876
ltibia 30.5233
lfoot -14.6017 -31.1584
ltoes 14.6769
569
root 2.60388 17.32 13.3769 -189.024 -101.026 -176.155
lowerback 8.20365 4.9687 1.11488
upperback -1.40559 6.81616 1.25024
thorax -6.07889 3.33618 -0.223955
lowerneck -15.1529 -6.05746 -18.1978
upperneck -2.04377 -5.81133 19.2741
head 3.08517 -2.25254 8.68161
rclavicle -7.84206e-014 -4.37326e-015
rhumerus -1.2497 -32.6843 -26.3094
rradius 39.1024
rwrist -49.6809
rhand -23.4923 29.4261
rfingers 7.12502
rthumb 2.96769 -0.533024
lclavicle -7.84206e-014 -4.37326e-015
lhumerus 1.44852 72.2849 1.97256
lradius 45.4472
lwrist 36.5362
lhand 5.12431 37.6743
lfingers 7.12502
lthumb 30.4885 65.172
rfemur -15.7308 2.52582 8.55065
rtibia 30.195
rfoot -5.59349 -2.60083
rtoes -7.80384
lfemur -1.37173 -17.5079 -10.7027
ltibia 29.9677
lfoot -16.4022 -29.8234
ltoes 13.1094
570
root 2.68299 17.3167 13.4634 -191.946 -100.417 -173.002
lowerback 8.04818 4.9638 0.61643
upperback -1.24415 6.75584 1.30643
thorax -5.88556 3.32803 0.136847
lowerneck -14.9171 -6.6926 -18.1706
upperneck -2.18584 -6.71709 19.4496
head 3.18803 -2.70891 8.64203
rclavicle 1.0471e-013 1.63003e-014
rhumerus -1.90541 -29.7985 -26.8447
rradius 40.2102
rwrist -51.7186
rhand -24.5038 30.3274
rfingers 7.12502
rthumb 1.99078 0.356951
lclavicle 1.0471e-013 1.63003e-014
lhumerus 1.1536 72.3759 1.58536
lradius 45.8333
lwrist 36.7242
lhand 4.84911 37.5756
lfingers 7.12502
lthumb 30.226 65.1217
rfemur -16.2235 2.90691 7.64745
rtibia 29.84
rfoot -5.36675 -2.44091
rtoes -4.88731
lfemur -1.23833 -15.7939 -11.6926
ltibia 29.5833
lfoot -18.2096 -28.0772
ltoes 11.4077
571
root 2.77076 17.3095 13.5585 -192.743 -99.7348 -172.315
lowerback 8.2993 4.90587 0.818056
upperback -1.08114 6.70518 1.45535
thorax -5.8507 3.29761 0.172552
lowerneck -14.6037 -7.38287 -18.286
upperneck -2.25416 -7.69678 19.6947
head 3.32476 -3.20127 8.63881
rclavicle -9.93923e-017 -1.59028e-014
rhumerus -1.32901 -31.1881 -28.9758
rradius 39.7103
rwrist -49.4677
rhand -24.1031 31.3393
rfingers 7.12502
rthumb 2.37779 1.37277
lclavicle -9.93923e-017 -1.59028e-014
lhumerus 0.296168 71.9026 0.76123
lradius 46.6293
lwrist 37.7339
lhand 3.73734 37.8751
lfingers 7.12502
lthumb 29.1649 65.6104
rfemur -16.242 3.12715 7.31521
rtibia 29.1385
rfoot -4.67408 -2.13483
rtoes -4.10543
lfemur -0.849035 -14.4404 -12.2659
ltibia 29.3957
lfoot -19.7673 -26.0822
ltoes 9.26669
572
root 2.86154 17.3159 13.6458 -195.329 -98.5964 -169.667
lowerback 8.52771 5.03998 0.750909
upperback -0.972393 6.88 1.50376
thorax -5.88032 3.3852 0.220197
lowerneck -14.32 -8.10808 -18.1586
upperneck -2.3756 -8.74786 19.778
head 3.44493 -3.7337 8.52351
rclavicle -2.27111e-014 -1.03368e-014
rhumerus -1.38787 -31.0484 -30.6879
rradius 39.8988
rwrist -48.7255
rhand -24.3043 32.4083
rfingers 7.12502
rthumb 2.18347 2.43971
lclavicle -2.27111e-014 -1.03368e-014
lhumerus -0.0229179 71.5712 0.354694
lradius 47.3294
lwrist 38.4626
lhand 3.08016 37.9306
lfingers 7.12502
lthumb 28.5372 65.773
rfemur -16.4574 3.62103 6.85471
rtibia 28.1418
rfoot -3.56772 -1.6239
rtoes -5.96128
lfemur -0.601192 -13.3338 -13.0126
ltibia 29.3741
lfoot -21.4806 -23.7504
ltoes 5.31858
573
root 2.9504 17.334 13.7392 -198.299 -97.6447 -166.54
lowerback 8.64352 5.05624 0.628944
upperback -0.873834 6.88905 1.53113
thorax -5.85986 3.3936 0.308063
lowerneck -14.3918 -8.75876 -17.7574
upperneck -2.21218 -9.71548 19.7702
head 3.6679 -4.20743 8.32618
rclavicle -9.323e-014 -1.27222e-014
rhumerus -1.41422 -30.2606 -32.5003
rradius 40.1483
rwrist -48.3977
rhand -24.6538 33.6501
rfingers 7.12502
rthumb 1.8459 3.67835
lclavicle -9.323e-014 -1.27222e-014
lhumerus -0.187903 71.7213 -0.0223322
lradius 47.7042
lwrist 38.5779
lhand 3.34224 38.0647
lfingers 7.12502
lthumb 28.7875 65.8648
rfemur -16.625 4.04185 6.35621
rtibia 26.9916
rfoot -2.73383 -1.15002
rtoes -5.27378
lfemur -0.59906 -13.4018 -13.8573
ltibia 29.4597
lfoot -22.9421 -21.1154
ltoes 0.0779391
574
root 3.03312 17.3478 13.8404 -203.411 -97.454 -161.429
lowerback 8.80083 4.78019 0.241699
upperback -0.725565 6.47144 1.40419
thorax -5.81627 3.19819 0.439532
lowerneck -14.404 -9.29119 -17.4237
upperneck -1.90728 -10.5535 19.9542
head 3.91471 -4.61119 8.21701
rclavicle -2.52953e-014 -7.95139e-016
rhumerus -1.28643 -29.6288 -34.7062
rradius 40.3297
rwrist -47.7173
rhand -24.9048 34.9161
rfingers 7.12502
rthumb 1.60354 4.94234
lclavicle -2.52953e-014 -7.95139e-016
lhumerus -0.80948 71.8024 -0.945369
lradius 48.1551
lwrist 38.6301
lhand 3.35612 38.2352
lfingers 7.12502
lthumb 28.8008 66.033
rfemur -16.3463 3.7566 5.39844
rtibia 25.7797
rfoot -1.95104 -0.388167
rtoes -3.66238
lfemur -0.674832 -14.6131 -15.241
ltibia 29.6555
lfoot -23.7036 -18.8514
ltoes -4.08729
575
root 3.11759 17.3608 13.9283 -207.551 -96.8922 -157.097
lowerback 8.73409 4.61864 0.0887617
upperback -0.633051 6.23524 1.3731
thorax -5.69065 3.0871 0.534461
lowerneck -14.0483 -9.84449 -17.329
upperneck -1.84598 -11.416 20.246
head 4.05677 -5.04427 8.18774
rclavicle -1.49337e-013 -7.95139e-016
rhumerus -1.3997 -28.7274 -36.6935
rradius 40.7609
rwrist -47.3464
rhand -25.2016 36.1333
rfingers 7.12502
rthumb 1.31688 6.15758
lclavicle -1.49337e-013 -7.95139e-016
lhumerus -1.55047 71.6166 -1.87322
lradius 48.7515
lwrist 39.0408
lhand 3.07568 38.2793
lfingers 7.12502
lthumb 28.5329 66.1225
rfemur -16.4632 3.89191 4.83653
rtibia 24.6456
rfoot -1.32892 0.166421
rtoes -3.22919
lfemur -1.13101 -15.3414 -16.0959
ltibia 29.973
lfoot -23.4356 -17.5835
ltoes -4.81041
576
root 3.20642 17.3737 14.0068 -208.986 -95.8241 -155.246
lowerback 8.53674 4.5882 0.309652
upperback -0.690736 6.22687 1.57471
thorax -5.63933 3.07993 0.636665
lowerneck -13.6525 -10.5055 -17.3915
upperneck -1.64864 -12.4146 20.4598
head 4.261 -5.54249 8.13462
rclavicle -2.17172e-014 0
rhumerus -1.63355 -27.4738 -38.3926
rradius 41.183
rwrist -47.2093
rhand -25.6565 37.545
rfingers 7.12502
rthumb 0.877541 7.56704
lclavicle -2.17172e-014 0
lhumerus -1.61395 71.3686 -1.94511
lradius 49.206
lwrist 39.3925
lhand 2.90346 38.4284
lfingers 7.12502
lthumb 28.3683 66.299
rfemur -17.0365 4.40208 4.95776
rtibia 23.6367
rfoot -1.19696 0.396902
rtoes -2.57061
lfemur -1.93872 -15.1777 -16.0603
ltibia 30.4053
lfoot -22.9504 -17.0825
ltoes -4.2407
577
root 3.28441 17.3819 14.0857 -213.203 -95.2664 -150.841
lowerback 8.50822 4.4593 0.154178
upperback -0.734625 6.04441 1.65957
thorax -5.69208 2.9959 0.834578
lowerneck -13.4148 -11.2451 -17.4665
upperneck -1.0294 -13.5417 20.5633
head 4.63199 -6.08613 8.01166
rclavicle 3.07122e-014 1.59028e-014
rhumerus -1.91599 -26.1321 -40.1034
rradius 41.4007
rwrist -47.2557
rhand -26.201 38.8747
rfingers 7.12502
rthumb 0.351646 8.89521
lclavicle 3.07122e-014 1.59028e-014
lhumerus -1.38159 70.9438 -1.77263
lradius 49.5533
lwrist 39.6229
lhand 2.82696 38.5055
lfingers 7.12502
lthumb 28.2952 66.3883
rfemur -17.2129 4.50036 4.68181
rtibia 22.6989
rfoot -1.39074 0.764864
rtoes -2.69605
lfemur -2.50414 -14.935 -16.448
ltibia 30.8847
lfoot -23.124 -16.6821
ltoes -4.26154
